<?xml version="1.0" encoding="UTF-8"?>
<svg xmlns="http://www.w3.org/2000/svg" xmlns:xlink="http://www.w3.org/1999/xlink" viewBox="0 0 64 64" width="40px" height="40px">
<g id="surface51129865">
<path style=" stroke:none;fill-rule:nonzero;fill:rgb(0%,0%,0%);fill-opacity:1;" d="M 62 45 L 56 49 L 58 52 L 49 52 L 21 53 L 10 54 L 13 49 C 13 49 10 47 6 47 C 6 47 8 44.378906 12 43 C 12 43 8.839844 38.628906 4.121094 36.210938 C 3.140625 35.699219 2.101562 35.28125 1 35 C 4.011719 31.988281 8.109375 30 13 30 C 14.898438 30 16.761719 30.03125 18.890625 30.960938 C 18.929688 30.96875 18.960938 30.980469 19 31 C 18.980469 30.929688 18.960938 30.859375 18.929688 30.800781 C 18.589844 29.730469 18.191406 28.710938 17.75 27.730469 C 15.839844 23.480469 13.058594 20.050781 9.578125 17.058594 C 8.761719 16.351562 7.898438 15.660156 7 15 C 7 15 10 13 15.5 13 C 19.261719 13 22.339844 14.371094 24.601562 15.910156 C 24.859375 16.078125 25.109375 16.261719 25.351562 16.441406 C 25.539062 16.570312 25.71875 16.710938 25.890625 16.851562 C 27.808594 18.398438 28.890625 19.839844 29 19.988281 C 29 12.25 27.121094 7.320312 27.011719 7.011719 C 28.421875 7.640625 29.671875 8.398438 30.78125 9.230469 L 30.78125 9.238281 C 30.988281 9.398438 31.199219 9.558594 31.410156 9.71875 C 37.519531 14.660156 39 21.78125 39 22 L 39.070312 22 C 43.421875 22.039062 46.058594 25.871094 46.800781 27.480469 C 46.898438 27.699219 46.96875 27.878906 47 28 C 48.628906 26.25 50 25 55 25 C 52.699219 25.640625 50.5 27.75 50 29 L 59 29 C 58.171875 29.519531 57.308594 30.019531 56.410156 30.488281 C 54.75 31.371094 52.960938 32.179688 51.011719 33 C 56.011719 33 63 35 63 35 C 63 35 62.308594 36.039062 60.730469 37.5 C 59.621094 38.519531 58.058594 39.761719 56 41 Z M 62 45 "/>
<path style=" stroke:none;fill-rule:nonzero;fill:rgb(0%,0%,0%);fill-opacity:1;" d="M 13 30 C 14.898438 30 16.761719 30.03125 18.890625 30.960938 C 18.511719 32.390625 17.089844 33.351562 15.589844 33.140625 C 14.710938 33.019531 13.820312 33 13 33 C 8.988281 33 6.058594 34.589844 4.121094 36.210938 C 3.140625 35.699219 2.101562 35.28125 1 35 C 4.011719 31.988281 8.109375 30 13 30 Z M 24.601562 15.910156 C 23.851562 17.261719 22.179688 17.808594 20.75 17.171875 C 19.058594 16.390625 17.289062 16 15.5 16 C 12.671875 16 10.660156 16.609375 9.578125 17.058594 C 8.761719 16.351562 7.898438 15.660156 7 15 C 7 15 10 13 15.5 13 C 19.261719 13 22.339844 14.371094 24.601562 15.910156 Z M 32.359375 16.238281 C 32.5 18.171875 31.058594 19.851562 29.128906 19.988281 C 29.089844 19.988281 29.039062 20 29 19.988281 C 29 12.25 27.121094 7.320312 27.011719 7.011719 C 28.421875 7.640625 29.671875 8.398438 30.78125 9.230469 L 30.78125 9.238281 C 30.988281 9.398438 31.199219 9.558594 31.410156 9.71875 C 31.789062 11.441406 32.171875 13.640625 32.359375 16.238281 Z M 63 35 C 63 35 62.308594 36.039062 60.730469 37.5 C 59.089844 37.101562 56.320312 36.46875 53.660156 36.171875 C 52.070312 35.988281 50.898438 34.589844 51.011719 33 C 56.011719 33 63 35 63 35 Z M 46.800781 27.480469 C 46.289062 27.828125 45.699219 28 45.109375 28 C 44.289062 28 43.46875 27.660156 42.871094 27 C 42.441406 26.511719 41.71875 25.839844 40.769531 25.410156 C 39.441406 24.808594 38.761719 23.371094 39.070312 22 C 43.421875 22.039062 46.058594 25.871094 46.800781 27.480469 Z M 46.800781 27.480469 "/>
<path style=" stroke:none;fill-rule:nonzero;fill:rgb(100%,100%,100%);fill-opacity:1;" d="M 45 45 C 45 45 45 40.9375 45 36 C 45 36 41 40 38 42 C 38 42 39 39 39 33 C 34.0625 36.085938 29 41 29 41 C 27.765625 38.53125 28 35.46875 28 33 C 28 33 24 36 24 41 L 24 47 L 21 45.253906 C 21 45.671875 21 45.964844 21 46 C 21 47.113281 21.0625 51.101562 23 54.4375 C 24 56.375 29.019531 61 34.5 61 C 40.019531 61 45 56.375 46 54.4375 C 47.9375 51.101562 48 47.109375 48 46 C 48 45.796875 48 45.261719 48 44.652344 C 47.164062 44.867188 46.226562 45 45 45 Z M 45 45 "/>
<path style=" stroke:none;fill-rule:nonzero;fill:rgb(100%,100%,100%);fill-opacity:1;" d="M 23 54.441406 C 21.570312 53.640625 20.371094 52.601562 19.398438 51.738281 C 17.050781 49.679688 16 46.808594 16 43.878906 C 15.96875 43.601562 16.171875 43.140625 16.398438 43.058594 C 16.730469 42.949219 17.289062 43 17.570312 43.179688 L 20.410156 44.910156 C 20.851562 45.300781 21 45.398438 21 46 C 21 47.109375 21.058594 51.101562 23 54.441406 Z M 53 43.878906 C 53 46.808594 51.949219 49.679688 49.601562 51.738281 C 48.628906 52.601562 47.429688 53.640625 46 54.441406 C 47.941406 51.101562 48 47.109375 48 46 C 48 45.398438 48.148438 45.300781 48.589844 44.910156 L 51.429688 43.179688 C 51.710938 43 52.269531 42.949219 52.601562 43.058594 C 52.828125 43.140625 53.03125 43.601562 53 43.878906 Z M 34.5 61 C 37.980469 61 41.246094 59.160156 43.4375 57.3125 C 42.542969 56.054688 40.828125 55.65625 39.476562 56.453125 C 38.28125 57.160156 36.449219 58 34.5 58 C 32.5625 58 30.726562 57.15625 29.523438 56.445312 C 28.167969 55.648438 26.457031 56.046875 25.5625 57.304688 C 27.761719 59.152344 31.035156 61 34.5 61 Z M 34.5 61 "/>
<path style=" stroke:none;fill-rule:nonzero;fill:rgb(100%,100%,100%);fill-opacity:1;" d="M 10 55 C 9.65625 55 9.335938 54.824219 9.152344 54.53125 C 8.953125 54.214844 8.949219 53.808594 9.144531 53.484375 L 11.613281 49.371094 C 10.519531 48.828125 8.449219 48 6 48 C 5.621094 48 5.273438 47.785156 5.105469 47.441406 C 4.933594 47.101562 4.972656 46.695312 5.203125 46.394531 C 5.285156 46.289062 6.996094 44.078125 10.367188 42.570312 C 8.8125 40.769531 5.207031 37.101562 0.753906 35.96875 C 0.40625 35.878906 0.132812 35.609375 0.0351562 35.265625 C -0.0585938 34.917969 0.0390625 34.546875 0.292969 34.292969 C 3.757812 30.828125 8.152344 29 13 29 C 14.324219 29 15.773438 29 17.371094 29.386719 C 15.308594 24.140625 11.78125 19.785156 6.40625 15.804688 C 6.144531 15.609375 5.992188 15.300781 6 14.976562 C 6.007812 14.648438 6.175781 14.347656 6.445312 14.167969 C 6.578125 14.078125 9.761719 12 15.5 12 C 21.382812 12 25.644531 15.101562 27.921875 17.296875 C 27.558594 11.183594 26.085938 7.414062 26.070312 7.371094 C 25.921875 6.992188 26.015625 6.558594 26.308594 6.277344 C 26.601562 5.996094 27.039062 5.921875 27.410156 6.089844 C 35.933594 9.921875 39.109375 18.132812 39.832031 21.042969 C 43.59375 21.421875 46.140625 24.320312 47.296875 26.285156 C 48.851562 24.875 50.714844 24 55 24 C 55.5 24 55.921875 24.371094 55.992188 24.863281 C 56.058594 25.359375 55.75 25.828125 55.265625 25.964844 C 54 26.316406 52.796875 27.179688 51.96875 28 L 59 28 C 59.445312 28 59.835938 28.296875 59.960938 28.722656 C 60.085938 29.152344 59.910156 29.609375 59.535156 29.847656 C 58.195312 30.691406 56.738281 31.488281 55.023438 32.308594 C 59.121094 32.863281 63.054688 33.976562 63.273438 34.039062 C 63.582031 34.128906 63.828125 34.355469 63.9375 34.65625 C 64.046875 34.957031 64.007812 35.289062 63.832031 35.554688 C 63.753906 35.671875 62.011719 38.242188 57.835938 41.023438 L 62.554688 44.167969 C 62.832031 44.355469 63 44.664062 63 45 C 63 45.335938 62.832031 45.644531 62.554688 45.832031 L 57.386719 49.277344 L 58.832031 51.445312 C 59.035156 51.753906 59.054688 52.144531 58.882812 52.472656 C 58.707031 52.796875 58.367188 53 58 53 L 49 53 L 49 51 L 56.132812 51 L 55.167969 49.554688 C 54.859375 49.09375 54.984375 48.476562 55.445312 48.167969 L 60.195312 45 L 55.445312 41.832031 C 55.160156 41.640625 54.992188 41.320312 55 40.976562 C 55.007812 40.632812 55.191406 40.320312 55.484375 40.144531 C 58.378906 38.40625 60.234375 36.664062 61.234375 35.570312 C 58.941406 34.996094 54.441406 34 51 34 C 50.523438 34 50.113281 33.664062 50.019531 33.195312 C 49.925781 32.726562 50.175781 32.261719 50.617188 32.078125 C 52.359375 31.347656 53.855469 30.671875 55.1875 30 L 50 30 C 49.667969 30 49.359375 29.835938 49.171875 29.5625 C 48.984375 29.285156 48.949219 28.9375 49.070312 28.628906 C 49.320312 28.007812 49.839844 27.289062 50.535156 26.597656 C 49.214844 27.085938 48.519531 27.832031 47.730469 28.679688 C 47.484375 28.949219 47.101562 29.058594 46.75 28.96875 C 46.394531 28.878906 46.117188 28.597656 46.03125 28.242188 C 45.894531 27.707031 43.476562 23 39 23 C 38.539062 23 38.140625 22.6875 38.027344 22.238281 C 38.015625 22.183594 38.007812 22.128906 38.003906 22.074219 C 37.898438 21.542969 36.097656 13.507812 28.671875 9.007812 C 29.265625 11.277344 30 15.078125 30 20 C 30 20.433594 29.71875 20.816406 29.304688 20.949219 C 28.894531 21.082031 28.441406 20.933594 28.1875 20.582031 C 28.140625 20.515625 23.363281 14 15.5 14 C 12.414062 14 10.179688 14.652344 8.878906 15.179688 C 14.5 19.644531 18.035156 24.613281 19.953125 30.699219 C 20.070312 31.074219 19.957031 31.484375 19.664062 31.746094 C 19.371094 32.007812 18.949219 32.074219 18.589844 31.910156 C 16.558594 31 14.75 31 13 31 C 8.492188 31 5.179688 32.757812 2.953125 34.578125 C 8.703125 36.804688 12.632812 42.164062 12.808594 42.414062 C 12.996094 42.671875 13.050781 43 12.953125 43.300781 C 12.859375 43.605469 12.625 43.84375 12.324219 43.945312 C 10.542969 44.558594 9.183594 45.445312 8.257812 46.191406 C 11.332031 46.710938 13.445312 48.097656 13.554688 48.167969 C 13.996094 48.464844 14.132812 49.058594 13.855469 49.515625 L 11.871094 52.828125 L 20.910156 52.007812 L 21.089844 53.996094 L 10.089844 54.996094 C 10.058594 55 10.03125 55 10 55 Z M 33.050781 5.695312 C 32.855469 5.695312 32.65625 5.640625 32.484375 5.519531 C 32.027344 5.207031 31.914062 4.585938 32.226562 4.128906 L 33.363281 2.480469 C 33.675781 2.027344 34.300781 1.914062 34.753906 2.226562 C 35.207031 2.539062 35.320312 3.160156 35.007812 3.617188 L 33.875 5.265625 C 33.679688 5.546875 33.367188 5.695312 33.050781 5.695312 Z M 37.035156 9.105469 C 36.769531 9.105469 36.507812 9 36.308594 8.792969 C 35.929688 8.390625 35.945312 7.757812 36.347656 7.378906 L 37.796875 6 C 38.195312 5.621094 38.828125 5.640625 39.210938 6.039062 C 39.589844 6.4375 39.574219 7.070312 39.175781 7.453125 L 37.722656 8.828125 C 37.53125 9.011719 37.28125 9.105469 37.035156 9.105469 Z M 37.035156 9.105469 "/>
<path style=" stroke:none;fill-rule:nonzero;fill:rgb(100%,100%,100%);fill-opacity:1;" d="M 25 43 C 25 43 24 45.0625 24 47 C 24 49 25 50 25 50 L 31 50 L 31.898438 47.441406 Z M 25 43 "/>
<path style=" stroke:none;fill-rule:nonzero;fill:rgb(100%,100%,100%);fill-opacity:1;" d="M 31 48 C 30.800781 48 30.601562 47.941406 30.425781 47.820312 C 27.96875 46.097656 25.011719 44.25 23.554688 43.519531 C 23.058594 43.273438 22.859375 42.671875 23.105469 42.175781 C 23.351562 41.683594 23.953125 41.484375 24.449219 41.730469 C 25.980469 42.496094 29.046875 44.410156 31.574219 46.179688 C 32.027344 46.496094 32.136719 47.121094 31.820312 47.574219 C 31.625 47.851562 31.3125 48 31 48 Z M 31 48 "/>
<path style=" stroke:none;fill-rule:nonzero;fill:rgb(100%,100%,100%);fill-opacity:1;" d="M 28.5 45 C 27.671875 45 27 45.894531 27 47 C 27 48.105469 27.671875 49 28.5 49 C 29.328125 49 30 48.105469 30 47 C 30 45.894531 29.328125 45 28.5 45 Z M 28.5 45 "/>
<path style=" stroke:none;fill-rule:nonzero;fill:rgb(100%,100%,100%);fill-opacity:1;" d="M 44 43 C 44 43 45 45.0625 45 47 C 45 49 44 50 44 50 L 38 50 L 37.101562 47.441406 Z M 44 43 "/>
<path style=" stroke:none;fill-rule:nonzero;fill:rgb(100%,100%,100%);fill-opacity:1;" d="M 38 48 C 38.199219 48 38.398438 47.941406 38.574219 47.820312 C 41.03125 46.097656 43.988281 44.25 45.445312 43.519531 C 45.941406 43.273438 46.140625 42.671875 45.894531 42.175781 C 45.648438 41.683594 45.046875 41.484375 44.550781 41.730469 C 43.019531 42.496094 39.953125 44.410156 37.425781 46.179688 C 36.972656 46.496094 36.863281 47.121094 37.179688 47.574219 C 37.375 47.851562 37.683594 48 38 48 Z M 38 48 "/>
<path style=" stroke:none;fill-rule:nonzero;fill:rgb(100%,100%,100%);fill-opacity:1;" d="M 40.5 45 C 39.671875 45 39 45.894531 39 47 C 39 48.105469 39.671875 49 40.5 49 C 41.328125 49 42 48.105469 42 47 C 42 45.894531 41.328125 45 40.5 45 Z M 40.257812 13.257812 C 39.925781 13.257812 39.597656 13.09375 39.410156 12.789062 C 39.113281 12.324219 39.253906 11.707031 39.722656 11.410156 L 41.414062 10.34375 C 41.882812 10.050781 42.5 10.1875 42.792969 10.65625 C 43.089844 11.125 42.945312 11.742188 42.480469 12.035156 L 40.789062 13.101562 C 40.621094 13.207031 40.4375 13.257812 40.257812 13.257812 Z M 42.636719 17.945312 C 42.234375 17.945312 41.855469 17.699219 41.699219 17.304688 C 41.503906 16.785156 41.761719 16.210938 42.277344 16.011719 L 44.144531 15.292969 C 44.65625 15.09375 45.234375 15.351562 45.433594 15.867188 C 45.632812 16.382812 45.375 16.960938 44.859375 17.160156 L 42.992188 17.878906 C 42.875 17.925781 42.753906 17.945312 42.636719 17.945312 Z M 34.5 62 C 28.375 62 23.15625 56.917969 22.109375 54.898438 L 23.886719 53.980469 C 24.816406 55.78125 29.550781 60 34.5 60 C 39.449219 60 44.183594 55.78125 45.109375 53.980469 L 46.886719 54.898438 C 45.84375 56.917969 40.628906 62 34.5 62 Z M 34.5 62 "/>
<path style=" stroke:none;fill-rule:nonzero;fill:rgb(100%,100%,100%);fill-opacity:1;" d="M 23 55.441406 C 22.832031 55.441406 22.664062 55.398438 22.511719 55.3125 C 21.042969 54.488281 19.839844 53.464844 18.738281 52.488281 C 16.339844 50.386719 15.011719 47.34375 15 43.921875 C 14.957031 43.230469 15.363281 42.359375 16.070312 42.113281 C 16.710938 41.902344 17.582031 42 18.109375 42.339844 L 20.929688 44.058594 C 20.980469 44.085938 21.027344 44.121094 21.074219 44.160156 C 21.65625 44.675781 22 45.050781 22 46 C 22 47.765625 22.242188 51.144531 23.863281 53.9375 C 24.089844 54.328125 24.027344 54.820312 23.714844 55.140625 C 23.519531 55.339844 23.261719 55.441406 23 55.441406 Z M 17.011719 44.023438 C 17.054688 46.855469 18.132812 49.300781 20.058594 50.988281 C 20.28125 51.183594 20.507812 51.382812 20.738281 51.582031 C 20.121094 49.390625 20 47.300781 20 46 C 20 45.878906 19.992188 45.839844 19.992188 45.835938 C 19.980469 45.851562 19.90625 45.796875 19.8125 45.71875 L 17.050781 44.03125 C 17.039062 44.027344 17.027344 44.023438 17.011719 44.023438 Z M 46 55.441406 C 45.738281 55.441406 45.480469 55.335938 45.285156 55.140625 C 44.972656 54.820312 44.910156 54.328125 45.136719 53.9375 C 46.339844 51.867188 47 49.050781 47 46 C 47 45.050781 47.34375 44.679688 47.863281 44.21875 C 47.90625 44.179688 48.019531 44.085938 48.070312 44.058594 L 50.910156 42.328125 C 51.417969 42 52.285156 41.902344 52.914062 42.109375 C 53.636719 42.363281 54.042969 43.230469 54 43.921875 C 53.988281 47.34375 52.660156 50.386719 50.257812 52.492188 C 49.160156 53.46875 47.960938 54.488281 46.488281 55.3125 C 46.335938 55.398438 46.167969 55.441406 46 55.441406 Z M 49 45.886719 C 49.003906 45.898438 49 45.941406 49 46 C 49 47.300781 48.878906 49.390625 48.261719 51.582031 C 48.488281 51.386719 48.714844 51.1875 48.9375 50.992188 C 50.882812 49.285156 51.964844 46.816406 52 44.019531 C 51.976562 44.023438 51.957031 44.03125 51.941406 44.035156 L 49.183594 45.71875 C 49.097656 45.796875 49.039062 45.84375 49 45.886719 Z M 52.007812 43.773438 Z M 52.007812 43.773438 "/>
<path style=" stroke:none;fill-rule:nonzero;fill:rgb(100%,100%,100%);fill-opacity:1;" d="M 24 48 C 23.824219 48 23.652344 47.953125 23.496094 47.863281 L 16.621094 43.863281 L 17.628906 42.136719 L 23 45.261719 L 23 41 C 23 35.5625 27.21875 32.335938 27.398438 32.199219 C 27.703125 31.972656 28.109375 31.933594 28.445312 32.105469 C 28.785156 32.273438 29 32.621094 29 33 C 29 33.335938 28.996094 33.683594 28.992188 34.035156 C 28.96875 35.726562 28.949219 37.597656 29.402344 39.25 C 31.175781 37.625 34.828125 34.429688 38.46875 32.152344 C 38.777344 31.960938 39.167969 31.949219 39.484375 32.125 C 39.804688 32.300781 40 32.636719 40 33 C 40 35.859375 39.777344 38.058594 39.539062 39.597656 C 41.929688 37.652344 44.261719 35.324219 44.292969 35.292969 C 44.578125 35.007812 45.007812 34.921875 45.382812 35.074219 C 45.757812 35.230469 46 35.597656 46 36 L 46 43.96875 C 47.863281 43.835938 48.945312 43.324219 50.476562 42.605469 C 50.824219 42.441406 51.191406 42.269531 51.589844 42.089844 L 52.410156 43.910156 C 52.023438 44.085938 51.664062 44.253906 51.328125 44.414062 C 49.445312 45.300781 47.964844 46 45 46 C 44.445312 46 44 45.554688 44 45 L 44 38.347656 C 42.535156 39.707031 40.386719 41.613281 38.554688 42.832031 C 38.199219 43.066406 37.734375 43.054688 37.394531 42.796875 C 37.054688 42.535156 36.914062 42.089844 37.050781 41.683594 C 37.058594 41.660156 37.792969 39.367188 37.964844 34.882812 C 33.714844 37.835938 29.742188 41.675781 29.695312 41.71875 C 29.46875 41.941406 29.144531 42.042969 28.832031 41.984375 C 28.519531 41.933594 28.246094 41.734375 28.105469 41.449219 C 27.164062 39.570312 26.996094 37.472656 26.984375 35.488281 C 26.027344 36.738281 25 38.628906 25 41 L 25 47 C 25 47.355469 24.808594 47.6875 24.5 47.867188 C 24.34375 47.957031 24.171875 48 24 48 Z M 34.5 56 C 32.3125 56 31.308594 54.742188 31.199219 54.601562 C 30.867188 54.160156 30.957031 53.53125 31.398438 53.199219 C 31.84375 52.871094 32.46875 52.960938 32.800781 53.402344 C 32.808594 53.40625 33.316406 54 34.5 54 C 35.683594 54 36.191406 53.40625 36.214844 53.382812 C 36.5625 52.96875 37.1875 52.890625 37.609375 53.226562 C 38.035156 53.5625 38.125 54.167969 37.800781 54.601562 C 37.691406 54.742188 36.6875 56 34.5 56 Z M 34.5 56 "/>
</g>
</svg>
